<svg xmlns="http://www.w3.org/2000/svg" viewBox="0 0 152.66 128.94"><defs><style>.cls-1,.cls-3{fill:#fff;}.cls-1,.cls-2{fill-rule:evenodd;}.cls-2{fill:#e30613;}</style></defs><g id="Слой_2" data-name="Слой 2"><g id="_1" data-name="1"><path class="cls-1" d="M103.45,22.25a6.15,6.15,0,0,0-1.08,1.37,4.79,4.79,0,0,0,0,1.27,6.9,6.9,0,0,0-1,.7c0,.08,0,.32,0,.32a6.81,6.81,0,0,0-1.31-.67c-.4-.09-1.35-1.58-2.45-1.58a19.11,19.11,0,0,0-2.67.12,5.38,5.38,0,0,1-2.48.29,12.45,12.45,0,0,0-2.88,0c-.65,0-1.32-.75-2.17-.79s-7.89,0-8.31-.07-1.66-.4-2-.44S75.7,21.46,75,21.61a3.29,3.29,0,0,0-1.66,1.52,3.18,3.18,0,0,0,.39,1,12.88,12.88,0,0,1,1.85.22,1.66,1.66,0,0,0,.81.34c.3,0,2.53-.12,2.53-.12s5.42,1.78,6.17,1.87,4.12.28,4.12.28a20.58,20.58,0,0,0,2.17.49,17.14,17.14,0,0,0,2.1,0l.17.58L91.28,30.1s-2.13.69-2.7.83a2.68,2.68,0,0,0-1,.51l-4.43-1.9L78,27.74h-.56L69,24.43s-2.67-2-4.25-2.3-7.27-1.87-7.64-1.92S54,18.66,53.3,18.82s-.8,1.25-.77,1.63a6.35,6.35,0,0,0,1.6,2.13,19.12,19.12,0,0,1,2.65-.21c.56.16,4.73,2.22,5.61,2.75a9,9,0,0,0,3.13,1.34c.77,0,1.2.08,1.2.08a30.05,30.05,0,0,0,4.54,3.63L78,33.94l-.06.92c0,.28,5.53,4.88,5.53,4.88l-.24,6.46.75.15.26,1.06s2.4,7.14,2.38,7.43a28.69,28.69,0,0,0-.17,4.28c.19.37,2,4.14,2.2,4.67A31.84,31.84,0,0,1,89.76,69a6.53,6.53,0,0,0,0,2.51,1.58,1.58,0,0,0,1.47,1c.7,0,3.66-.32,4.22,0a4.87,4.87,0,0,0,2.19,0s-.93-1.36-1.92-1.52a8.79,8.79,0,0,1-3.07-1.55c-.14-.21-1.15-7.46-1.18-8.23s-.75-4.2-.75-4.2a25.48,25.48,0,0,0,0-4.3,36.78,36.78,0,0,1-.13-5L91,47l0-4.2.24-.83,0-1.49s5.16-.78,6.07-.86l3.07-.29,2.65-.7s-1.85,3-2,3.37a9.16,9.16,0,0,0-.59,2.88c.16.54,3,3.27,3,3.43s.36.64.34,1.12.83.53,1.09.43a5,5,0,0,0,1.26-2.36,5.57,5.57,0,0,0-.56-1.73l-.22-.48-.58-.08-1-1.66s1.47-2.17,1.49-2.35,3.53-3.53,3.34-5.24A19.33,19.33,0,0,0,107,31.27a11.43,11.43,0,0,1-.38-2,8.83,8.83,0,0,1,.88-1.07,21.75,21.75,0,0,0,2.44-2.45l1,.31a3.74,3.74,0,0,0-.66,1.65c0,.72,0,1.95.66,2.2s.63,1.45.63,1.45l.76-.73-.74-.69c-.44-.43-.56-2-.65-2.33s.75-1.15.63-1.73c-.07-.34-.78-.93-1.34-1.34,0-1.19-.25-3-1.36-3.39a14.08,14.08,0,0,0-5.46,0C103.12,21.3,103.45,22.25,103.45,22.25Z"/><path class="cls-2" d="M57,17.67s.32.77.54.87,1.41-.19,1.75,0a19.42,19.42,0,0,1,1.69,1.15,10.29,10.29,0,0,1,1.26,1.07,3.27,3.27,0,0,1,.25,1c0,.16-1,.23-1.62.76s-1.4,1-1.4,1a8.33,8.33,0,0,0-2,.33c-.44.24-1.73.74-1.91.46s.19-1.23.32-1.38.27-1.66.41-1.93a7.42,7.42,0,0,0,.68-2.29c-.06-.5-.24-1.39.06-1.11ZM46.23,32.32c.57.15,1.24.33,1.89.52-.14-.62-.29-1.32-.48-2.13l-1.41,1.61Zm2.82,3.5a13.62,13.62,0,0,0,3,3.79l2.42,2.17-.24,4.3c.53,1.78,0,3.52.25,5.78l.65,5.8c.08.86.21.65.34,1.27.41,2-.73,1.81,1.29,6.76,1,2.42,3.22,4.66.38,6.87-2,1.51-2.22.7-2.22,1.6,0,.65.79.81,1.41.81,1.14,0,2.48-1.2,4-1.68,2-.67,1-1.2.47-4.15-.62-3.74-.08-6.34-.43-7.42-.23-.71-1.18-1.89-1.18-2.44,0-.83.41-.74.41-3.22a5.42,5.42,0,0,0,1.29-.57l-.14-3.9,1.49-6.71L63.73,42c.57-.84,1.06-1.69,1.65-2.57,2.23-3,1-1.72,1.4-3.83l.77-.64c0,2.34.18,2,.87,3.56,2.17,5.09-.21,4.78-.06,5.9s1.73,1.09,2,3c.57,3.42.13,2.53,1.37,3.66,1,.89,1.26-.42,1.22-1.81,0-1.18-.23-1.52-.22-2.82,0-4.34-.8-3.46-.8-5.23,0-2.66.56-12.53-3-14.09-1.67-.73-2.48.07-3.62.87,0,.12-2.89,2.4-4,5a7.29,7.29,0,0,1-1.81,0c-.13-.15-.09-4.56-.14-4.92s.23-.59.58-.67a26.32,26.32,0,0,0,5.12-2.75c3.42-2.83,1.4-3.67-1.7-6.22-2.09-1.72-2.47-1.5-4.12-2.73-1-.77-1.45-.22-2.7-.72-.41-.17-.75-.35-1.1-.51l-.55-.25c-.34-.13,0-.11-.63-.17a1.33,1.33,0,0,0,.28.93c.17.25.18.19.3.3s.09.12.11.09.07.06.11.09a4.9,4.9,0,0,0-2.37,0A3.71,3.71,0,0,0,50.56,17a3.26,3.26,0,0,0-1.6.17c-.46.36-.36,1.55-.62,1.73s-1.39,1.32-2,1.36l-1,.05.11,1s.76-.94,1.42-.7,1.46-.7,1.92-1.25a3.69,3.69,0,0,0,.56-1.68L50,18a5.72,5.72,0,0,0,.06,4.9c1.12,2.2-2,1.57-2.72,1.9-1.2.6-1.48,1.25-1.71,2.72-.16,1-1,1.72-1.83,2.8-1.67,2.07-2.1,4.54.44,4.65h0l.17,0c-.12.28-1.06,2.2-.4,3.39.63-.46.41-.53.41-1.61l.41.8c.29.39,0,.26.59.41a9.1,9.1,0,0,1-.24-2.84Z"/><path class="cls-1" d="M118.31,93.79h-4.59V75.6l4.59-.37V93.79Zm8.52-11.68V74.35c1.54-.18,3.09-.39,4.63-.6v20h-4.63V86.05c-2.49.12-5,.22-7.45.31.32-1.27.66-2.55,1-3.83,2.16-.13,4.31-.26,6.46-.42Zm-14.71.82v6.38a4,4,0,0,1-1.91,3.37,6.41,6.41,0,0,1-3.74,1.11h-7a6.26,6.26,0,0,1-4.23-1.45,3.65,3.65,0,0,1-1.42-2.84V80.79a3.87,3.87,0,0,1,1.91-3.25,6.86,6.86,0,0,1,3.74-1.19c3.53-.13,7-.3,10.58-.49v3.63c-3.51.15-7,.29-10.53.39a1.14,1.14,0,0,0-1,.54.72.72,0,0,0-.07.34v8.67a.81.81,0,0,0,.67.79,1.33,1.33,0,0,0,.43.07c2.27,0,4.55,0,6.82-.05a1.08,1.08,0,0,0,1-.56.64.64,0,0,0,.09-.34V86.68l-5.37.1,1-3.56q4.48-.12,9-.29ZM92.27,93.79h-4.6V76.6l4.6-.07V93.79ZM86.19,76.62V80.1l-11,0v3.35h8.44c-.33,1.15-.67,2.3-1,3.46H75.23v6.85H70.64V76.66s5.17,0,15.55,0Zm59,17.17h-4.6V76.62c-2.5.36-5,.68-7.48,1V73.53s6.52-1.06,19.57-3.77c-.33,1.68-.67,3.36-1,5-2.16.4-4.33.79-6.48,1.14V93.79Z"/><path class="cls-2" d="M12.08,93.79H7.48V76c-2.5-.42-5-.88-7.48-1.35V69.76s6.52,1.49,19.56,3.84c-.34,1.31-.68,2.62-1,3.94-2.17-.27-4.32-.56-6.47-.87V93.79Zm46.8-8.74a3.75,3.75,0,0,1-2,3.18,6.6,6.6,0,0,1-3.67,1l-5.4,0c-.34-1.19-.67-2.39-1-3.59h6.34a1,1,0,0,0,1-.54.76.76,0,0,0,.08-.32V80.79c0-.39-.23-.66-.72-.8a1.54,1.54,0,0,0-.38-.07q-3.82-.11-7.65-.25V93.79h-4.6v-18q6.17.36,12.32.58A6.38,6.38,0,0,1,57.46,78a3.73,3.73,0,0,1,1.42,2.77q0,2.17,0,4.32ZM33.6,75.27a6.76,6.76,0,0,1,4.24,1.87,4.18,4.18,0,0,1,1.42,3.06v9.11a4,4,0,0,1-1.9,3.35,6.38,6.38,0,0,1-3.76,1.13H26.32a5.73,5.73,0,0,1-4.23-1.66,4.5,4.5,0,0,1-1.42-3.3V78.74a3.92,3.92,0,0,1,1.91-3.47,5.59,5.59,0,0,1,3.74-.76c2.43.28,4.85.54,7.28.76Zm-.08,14.81a1,1,0,0,0,1-.55.74.74,0,0,0,.08-.35V80a.93.93,0,0,0-.72-.88,1.53,1.53,0,0,0-.4-.09c-2.38-.18-4.74-.37-7.11-.59a.87.87,0,0,0-1.14.84c0,1.61,0,3.22,0,4.84v4.83a.92.92,0,0,0,.7.89,1.05,1.05,0,0,0,.44.1Z"/><path class="cls-2" d="M126.14,99.36h19l-16.86,3.24a64.47,64.47,0,0,1-104,0L7.48,99.36h19a60.82,60.82,0,0,0,99.62,0Z"/><path class="cls-1" d="M11.86,64.47v-.84h0v-.81h0V62h0v-.09h0A64.27,64.27,0,0,1,13.49,50l0-.08.13-.55,0-.08v-.08l0-.08q.44-1.76,1-3.48l0-.07,0-.08a64.08,64.08,0,0,1,4.63-11.17l0-.07,0-.07c.35-.65.7-1.28,1.06-1.92l0-.07.29-.48,0-.07a65,65,0,0,1,9.92-12.79A64.5,64.5,0,0,1,132,31.93l0,.07,0,.07,0,.07,0,.07.6,1.06,0,.07,0,.07,0,.07.24.42,0,.08,0,.07,0,.07,0,.07,0,.07,0,.07a64.86,64.86,0,0,1,4.57,11h0l0,.08h0l0,.07.07.23,0,.08,0,.07v0l0,.06,0,.07,0,.08,0,.08,0,.07,0,.08v0l0,.06,0,.07,0,.08,0,.07,0,.08,0,.08v.07l0,.08,0,.08,0,.07,0,.08,0,.08,0,.07,0,.08,0,.08,0,.07,0,.08,0,.08v.08l0,.07,0,.08,0,.08,0,.07,0,.08v.08l0,.08,0,.07,0,.08,0,.08,0,.08v.06h0l0,.08,0,.08v.08l0,.07,0,.08,0,.16,0,.07,0,.08,0,.08v.08l0,.08h0v.07l0,.08,0,.08,0,.08V50l0,.07v.08l0,.08a65.44,65.44,0,0,1,1.53,11.89v0h0v.23h0v.2h0v1.13h0V64h0v.45c0,.87,0,1.74-.05,2.6l-46-1.82L94.5,63.7,137.09,62a61.55,61.55,0,0,0-1.43-10.94L94.11,60.5c0-.43-.15-1-.25-1.54l40.55-12.55a59.91,59.91,0,0,0-4.23-10.22l-21.3,11.28h0a8.26,8.26,0,0,0-.8-2.85l-.11-.24L127.72,32a61.53,61.53,0,0,0-8.39-10.48A60.84,60.84,0,0,0,24.93,32L51.69,48.81l0,.28a23.12,23.12,0,0,0,0,2.5L22.48,36.2a60.17,60.17,0,0,0-4.22,10.17l34,10.54L52.37,58a4.84,4.84,0,0,0,.24,1.22L17,51.07a61.65,61.65,0,0,0-1.43,11l37.49,1.45c.15.55.35,1.19.63,2L11.91,67.05c0-.86-.05-1.72-.05-2.58Zm81.63-10.9c0,.64,0,1.33,0,1.94l8.17-4.26a3.06,3.06,0,0,1-.38-.69h0a3.22,3.22,0,0,1-.21-.89,3.18,3.18,0,0,0-.44-.64Z"/><path class="cls-1" d="M105.92,99.36a45.73,45.73,0,0,1-51.31,5.37,46.56,46.56,0,0,1-7.87-5.37h2.91a44.57,44.57,0,0,0,5.83,3.76A43.91,43.91,0,0,0,103,99.36Z"/><path class="cls-3" d="M48.62,114.24l2.51-5.16,1.2.59.44,4.55-.64-.31,3.79-2.5,1.2.58-2.49,5.17-1.35-.65,1.5-3.13.23.11-2.82,1.86-.65-.32-.33-3.39.28.14L50,114.9Z"/><path class="cls-3" d="M59.12,118.83a2.77,2.77,0,0,1-1.68-1.27,2.65,2.65,0,0,1-.07-2.1l1-3,1.55.49-1,3a1.57,1.57,0,0,0,0,1.1,1,1,0,0,0,.67.54,1,1,0,0,0,.85-.06,1.54,1.54,0,0,0,.6-.92l1-3,1.52.48-1,3a2.65,2.65,0,0,1-1.28,1.67A2.72,2.72,0,0,1,59.12,118.83Z"/><path class="cls-3" d="M62.93,119.88l3.52-5.19L68,115l1.48,6.1-1.67-.3-1.06-5.22.63.11-2.84,4.51Zm1.56-.84.63-1.11,2.76.51.19,1.25Z"/><path class="cls-3" d="M72,121.23l.15-2.42.32,1-2.29-4.44,1.71.11,1.65,3.21-1-.06,2-3,1.58.1-2.82,4.12.42-1-.16,2.42Z"/><path class="cls-3" d="M81.39,121.17l-.46-4.43-1.76.18L79,115.64l5.11-.54.14,1.28-1.75.19L83,121Z"/><path class="cls-3" d="M87.83,120.21l-1.58.36L85,115l1.58-.37Zm1.77-2.7-2.38.54-.3-1.31,2.38-.54Zm-.89-3.39,1.58-.36,1.28,5.6-1.58.36Z"/><path class="cls-3" d="M93,119l.38-6.26,1.5-.56,4.37,4.5-1.58.59-3.58-4,.6-.22-.14,5.32Zm.91-1.53,0-1.27,2.63-1,.81,1Z"/><path class="cls-3" d="M100.35,116.05l-2.51-5.16,1.47-.71,2.5,5.16Z"/></g></g></svg>